<svg width="44" height="35" viewBox="0 0 44 35" fill="none" xmlns="http://www.w3.org/2000/svg">
<path d="M12.7677 0.591553H6.20142C2.77664 0.591553 0 3.4313 0 6.93392V13.6495C0 17.1521 2.77664 19.9917 6.20142 19.9917H6.85102C7.3957 19.9917 7.90591 20.2667 8.21485 20.7267C8.52242 21.1867 8.58997 21.7724 8.39309 22.2921L4.68944 32.1082C4.49255 32.6285 4.5601 33.2142 4.86767 33.6735C5.17662 34.1335 5.68683 34.4084 6.2315 34.4084H10.5918C11.2069 34.4084 11.7717 34.0585 12.0563 33.5016L17.3205 23.2157C18.4041 21.0985 18.9704 18.7438 18.9704 16.3539V6.93383C18.9705 3.4313 16.1925 0.591553 12.7677 0.591553Z" fill="#15B9D9" fill-opacity="0.17"/>
<path d="M37.7987 0.591553H31.2323C27.8075 0.591553 25.031 3.4313 25.031 6.93392V13.6495C25.031 17.1521 27.8076 19.9917 31.2323 19.9917H31.8805C32.4252 19.9917 32.9367 20.2667 33.2443 20.7267C33.5533 21.1867 33.6194 21.7724 33.424 22.2921L29.719 32.1083C29.5221 32.6286 29.5896 33.2143 29.8986 33.6736C30.2062 34.1336 30.7164 34.4085 31.2625 34.4085H35.6214C36.2365 34.4085 36.8014 34.0586 37.0874 33.5017L42.3502 23.2158C43.4338 21.0985 44 18.7439 44 16.3539V6.93383C44 3.4313 41.2234 0.591553 37.7987 0.591553Z" fill="#15B9D9" fill-opacity="0.17"/>
</svg>
