<svg width="28" height="17" viewBox="0 0 28 17" fill="none" xmlns="http://www.w3.org/2000/svg">
<path fill-rule="evenodd" clip-rule="evenodd" d="M0.135986 8.49979C0.135986 8.18076 0.748261 7.92212 1.50353 7.92212H17.914C18.6692 7.92212 19.2815 8.18076 19.2815 8.49979C19.2815 8.81881 18.6692 9.07745 17.914 9.07745H1.50353C0.748261 9.07745 0.135986 8.81881 0.135986 8.49979Z" fill="#0B0449"/>
<path fill-rule="evenodd" clip-rule="evenodd" d="M0.135986 0.577667C0.135986 0.258633 0.613463 0 1.20244 0H26.7975C27.3866 0 27.864 0.258633 27.864 0.577667C27.864 0.896701 27.3866 1.15533 26.7975 1.15533H1.20244C0.613463 1.15533 0.135986 0.896701 0.135986 0.577667Z" fill="#0B0449"/>
<path fill-rule="evenodd" clip-rule="evenodd" d="M0.135986 16.4224C0.135986 16.1034 0.613463 15.8447 1.20244 15.8447H26.7975C27.3866 15.8447 27.864 16.1034 27.864 16.4224C27.864 16.7414 27.3866 17.0001 26.7975 17.0001H1.20244C0.613463 17.0001 0.135986 16.7414 0.135986 16.4224Z" fill="#0B0449"/>
</svg>
